<svg width="512" height="512" xmlns="http://www.w3.org/2000/svg">
 <g id="Layer_1">
  <title>Layer 1</title>
  <line stroke-linecap="undefined" stroke-linejoin="undefined" id="svg_2" y2="105" x2="245" y1="187" x1="125" stroke="#000" fill="none"/>
  <line stroke-linecap="undefined" stroke-linejoin="undefined" id="svg_3" y2="105" x2="243" y1="167" x1="374" stroke="#000" fill="none"/>
  <line stroke-linecap="undefined" stroke-linejoin="undefined" id="svg_4" y2="168" x2="373" y1="312" x1="392" stroke="#000" fill="none"/>
  <line stroke-linecap="undefined" stroke-linejoin="undefined" id="svg_5" y2="311" x2="392" y1="401" x1="268" stroke="#000" fill="none"/>
  <line stroke-linecap="undefined" stroke-linejoin="undefined" id="svg_6" y2="400.90307" x2="268.30699" y1="334.60503" x1="133.50098" stroke="#000" fill="none"/>
  <line stroke-linecap="undefined" stroke-linejoin="undefined" id="svg_7" y2="334.05255" x2="132.9485" y1="185.98693" x1="124.66124" stroke="#000" fill="none"/>
  <line stroke-linecap="undefined" stroke-linejoin="undefined" id="svg_8" y2="193.7217" x2="250.62751" y1="231.29059" x1="195.93163" stroke="#000" fill="none"/>
  <line stroke-linecap="undefined" stroke-linejoin="undefined" id="svg_9" y2="193.7217" x2="250.62751" y1="221.34588" x1="310.29575" stroke="#000" fill="none"/>
  <line stroke-linecap="undefined" stroke-linejoin="undefined" id="svg_10" y2="221.34588" x2="310.84823" y1="287.64392" x1="318.03052" stroke="#000" fill="none"/>
  <line stroke-linecap="undefined" stroke-linejoin="undefined" id="svg_11" y2="287.09144" x2="318.583" y1="325.21281" x1="262.78216" stroke="#000" fill="none"/>
  <line stroke-linecap="undefined" stroke-linejoin="undefined" id="svg_12" y2="326.87026" x2="262.78216" y1="297.03614" x1="200.90399" stroke="#000" fill="none"/>
  <line stroke-linecap="undefined" stroke-linejoin="undefined" id="svg_13" y2="298.14111" x2="200.3515" y1="230.7381" x1="196.48412" stroke="#000" fill="none"/>
  <line stroke-linecap="undefined" stroke-linejoin="undefined" id="svg_14" y2="230.7381" x2="196.48412" y1="186.53941" x1="124.10876" stroke="#000" fill="none"/>
  <line stroke-linecap="undefined" stroke-linejoin="undefined" id="svg_15" y2="193.16921" x2="250.62751" y1="104.77183" x1="243.99771" stroke="#000" fill="none"/>
  <line stroke-linecap="undefined" stroke-linejoin="undefined" id="svg_16" y2="221.89836" x2="310.29575" y1="167.20248" x1="373.27889" stroke="#000" fill="none"/>
  <line stroke-linecap="undefined" stroke-linejoin="undefined" id="svg_17" y2="288.1964" x2="318.03052" y1="311.40072" x1="392.61581" stroke="#000" fill="none"/>
  <line stroke="#000" stroke-linecap="undefined" stroke-linejoin="undefined" id="svg_18" y2="325.21281" x2="262.22967" y1="400.90307" x1="268.30699" fill="none"/>
  <line stroke-linecap="undefined" stroke-linejoin="undefined" id="svg_19" y2="297.58863" x2="201.45647" y1="334.60503" x1="132.9485" stroke="#000" fill="none"/>
 </g>
</svg>